<?xml version="1.0" encoding="UTF-8"?>
<svg width="1920" height="600" viewBox="0 0 1920 600" fill="none" xmlns="http://www.w3.org/2000/svg">
  <defs>
    <linearGradient id="grad1" x1="0%" y1="0%" x2="100%" y2="100%">
      <stop offset="0%" style="stop-color:#2563eb;stop-opacity:0.1" />
      <stop offset="100%" style="stop-color:#1e40af;stop-opacity:0.3" />
    </linearGradient>
  </defs>
  <rect width="1920" height="600" fill="#1a365d"/>
  <rect width="1920" height="600" fill="url(#grad1)"/>
  
  <!-- Line Chart -->
  <path d="M100,450 Q400,350 700,400 T1300,300 T1800,200" 
        stroke="#60a5fa" stroke-width="2" fill="none" opacity="0.3"/>
  
  <!-- Bar Chart -->
  <g transform="translate(200,300)" opacity="0.2">
    <rect x="0" y="0" width="40" height="100" fill="#60a5fa"/>
    <rect x="50" y="-30" width="40" height="130" fill="#60a5fa"/>
    <rect x="100" y="-50" width="40" height="150" fill="#60a5fa"/>
    <rect x="150" y="-80" width="40" height="180" fill="#60a5fa"/>
  </g>
  
  <!-- Area Chart -->
  <path d="M1000,400 Q1200,300 1400,350 T1800,250 V600 H1000 Z" 
        fill="#60a5fa" opacity="0.1"/>
  
  <!-- Scatter Plot -->
  <g opacity="0.2">
    <circle cx="800" cy="200" r="4" fill="#60a5fa"/>
    <circle cx="850" cy="250" r="4" fill="#60a5fa"/>
    <circle cx="900" cy="180" r="4" fill="#60a5fa"/>
    <circle cx="950" cy="220" r="4" fill="#60a5fa"/>
    <circle cx="1000" cy="300" r="4" fill="#60a5fa"/>
  </g>
  
  <!-- Grid Lines -->
  <g stroke="#60a5fa" stroke-width="0.5" opacity="0.1">
    <line x1="0" y1="150" x2="1920" y2="150"/>
    <line x1="0" y1="300" x2="1920" y2="300"/>
    <line x1="0" y1="450" x2="1920" y2="450"/>
    <line x1="480" y1="0" x2="480" y2="600"/>
    <line x1="960" y1="0" x2="960" y2="600"/>
    <line x1="1440" y1="0" x2="1440" y2="600"/>
  </g>
</svg>
