<?xml version="1.0" encoding="UTF-8"?>
<svg width="1920" height="600" viewBox="0 0 1920 600" fill="none" xmlns="http://www.w3.org/2000/svg">
  <defs>
    <linearGradient id="grad1" x1="0%" y1="0%" x2="100%" y2="100%">
      <stop offset="0%" style="stop-color:#3b82f6;stop-opacity:0.1" />
      <stop offset="100%" style="stop-color:#1d4ed8;stop-opacity:0.3" />
    </linearGradient>
  </defs>
  <rect width="1920" height="600" fill="#1e40af"/>
  <rect width="1920" height="600" fill="url(#grad1)"/>
  
  <!-- Project Cards Pattern -->
  <g opacity="0.15">
    <rect x="300" y="150" width="200" height="150" rx="10" fill="#60a5fa"/>
    <rect x="600" y="200" width="200" height="150" rx="10" fill="#60a5fa"/>
    <rect x="900" y="150" width="200" height="150" rx="10" fill="#60a5fa"/>
    <rect x="1200" y="200" width="200" height="150" rx="10" fill="#60a5fa"/>
    <rect x="1500" y="150" width="200" height="150" rx="10" fill="#60a5fa"/>
  </g>
  
  <!-- Connected Dots -->
  <g opacity="0.2">
    <circle cx="400" cy="300" r="4" fill="#93c5fd"/>
    <circle cx="700" cy="350" r="4" fill="#93c5fd"/>
    <circle cx="1000" cy="300" r="4" fill="#93c5fd"/>
    <circle cx="1300" cy="350" r="4" fill="#93c5fd"/>
    <circle cx="1600" cy="300" r="4" fill="#93c5fd"/>
    <path d="M400 300 L700 350 L1000 300 L1300 350 L1600 300" stroke="#93c5fd" stroke-width="2"/>
  </g>
  
  <!-- Grid Pattern -->
  <g stroke="#60a5fa" stroke-width="0.5" opacity="0.1">
    <line x1="0" y1="200" x2="1920" y2="200"/>
    <line x1="0" y1="400" x2="1920" y2="400"/>
    <line x1="480" y1="0" x2="480" y2="600"/>
    <line x1="960" y1="0" x2="960" y2="600"/>
    <line x1="1440" y1="0" x2="1440" y2="600"/>
  </g>
</svg>
